<svg xmlns="http://www.w3.org/2000/svg" width="108.564" height="63.565" viewBox="0 0 108.564 63.565"><defs><style>.a{fill:#1d1e1c;}.b{fill:#faba0f;}</style></defs><g transform="translate(-0.006)"><path class="a" d="M63.41,0V18.41h-3.5a7.75,7.75,0,1,0,0,15.5h3.5v18.4H51.74a14.75,14.75,0,0,1-28.66,0H11.25V40.49a14.76,14.76,0,0,1,0-28.67V0Zm-7,11.82V7H18.25V18.41h-3.5a7.75,7.75,0,1,0,0,15.5h3.5v11.4H29.66v3.5a7.75,7.75,0,1,0,15.5,0v-3.5H56.41V40.49a14.76,14.76,0,0,1,0-28.67Z"/><path class="b" d="M108.57,0V18.41h-3.5a7.75,7.75,0,1,0,0,15.5h3.5v18.4H96.9a14.76,14.76,0,0,1-28.67,0H56.41V40.49a14.76,14.76,0,0,1,0-28.67V0Zm-7,11.82V7H63.41V18.41h-3.5a7.75,7.75,0,1,0,0,15.5h3.5v11.4h11.4v3.5a7.76,7.76,0,0,0,15.51,0v-3.5h11.25V40.49a14.76,14.76,0,0,1,0-28.67Z"/></g></svg>