<svg xmlns="http://www.w3.org/2000/svg" width="86.687" height="65.881" viewBox="0 0 86.687 65.881"><defs><style>.a{fill:#1d1e1c;}.b{fill:#faba0f;}</style></defs><g transform="translate(0.006 0.021)"><path class="a" d="M32.93,65.86A32.94,32.94,0,1,1,56.23,9.63l2.47,2.48L37.88,32.93,58.7,53.75l-2.47,2.48A32.87,32.87,0,0,1,32.93,65.86ZM32.93,7a26,26,0,1,0,0,51.9,25.76,25.76,0,0,0,15.71-5.29L28,32.93,48.64,12.27A25.76,25.76,0,0,0,32.93,7Z"/><path class="b" d="M74.57,58.7,48.8,32.93,74.57,7.16l2.48,2.47a33,33,0,0,1,0,46.6ZM58.7,32.93l15.71,15.7a26,26,0,0,0,0-31.41Z"/></g></svg>